<?xml version="1.0" standalone="no"?>
<!DOCTYPE svg PUBLIC "-//W3C//DTD SVG 20010904//EN"
 "http://www.w3.org/TR/2001/REC-SVG-20010904/DTD/svg10.dtd">
<svg version="1.0" xmlns="http://www.w3.org/2000/svg"
 width="416.000000pt" height="121.000000pt" viewBox="0 0 416.000000 121.000000"
 preserveAspectRatio="xMidYMid meet">

<g transform="translate(0.000000,121.000000) scale(0.100000,-0.100000)"
fill="#000000" stroke="none">
<path d="M1324 1081 c-8 -8 -4 -347 6 -428 10 -88 27 -131 69 -176 103 -111
369 -111 472 0 65 69 81 164 77 436 l-3 169 -82 1 -81 2 -4 -215 c-3 -199 -5
-218 -26 -257 -53 -102 -188 -99 -235 5 -19 42 -22 69 -25 257 l-4 210 -80 0
c-44 0 -82 -2 -84 -4z"/>
<path d="M2080 743 l0 -343 80 0 79 0 3 98 3 97 130 6 c157 7 208 23 263 83
50 54 68 124 52 204 -12 64 -19 78 -62 119 -63 61 -91 67 -331 73 l-217 5 0
-342z m403 172 c37 -24 50 -68 33 -110 -19 -44 -63 -57 -181 -53 l-90 3 -3 79
c-2 44 0 86 3 94 8 22 201 11 238 -13z"/>
<path d="M3402 840 c3 -241 3 -246 29 -301 48 -101 128 -142 279 -142 150 1
227 40 277 141 28 57 28 58 31 302 l4 245 -84 0 -83 0 -5 -220 c-4 -187 -8
-225 -23 -253 -58 -106 -211 -90 -246 27 -6 23 -11 117 -11 239 l0 201 -86 3
-85 3 3 -245z"/>
<path d="M386 1072 c-2 -4 -34 -86 -71 -182 -37 -96 -77 -186 -89 -200 -13
-14 -26 -33 -29 -42 -5 -14 1 -13 41 7 26 12 148 48 271 79 123 31 233 62 245
68 39 20 66 51 66 77 l0 25 -28 -27 c-15 -15 -31 -27 -34 -27 -3 0 -25 52 -49
115 l-43 115 -62 0 -62 0 35 -136 c19 -76 30 -140 26 -144 -9 -9 -163 -43
-168 -38 -2 2 14 73 35 158 22 85 40 156 40 158 0 6 -119 1 -124 -6z"/>
<path d="M2929 856 c-103 -37 -157 -103 -166 -206 -11 -112 50 -202 158 -234
63 -19 264 -20 324 -2 l40 12 3 61 3 61 -68 -19 c-124 -35 -245 -21 -273 30
-21 40 -16 41 176 41 l186 0 -7 48 c-15 105 -75 179 -167 207 -62 18 -160 19
-209 1z m193 -136 c36 -45 27 -50 -87 -50 -58 0 -105 3 -105 8 0 15 33 54 54
63 38 16 118 4 138 -21z"/>
<path d="M819 810 c-41 -41 -99 -60 -398 -135 -101 -25 -196 -52 -212 -60 -34
-18 -69 -61 -69 -86 0 -16 6 -15 47 11 34 21 111 46 263 85 328 85 341 90 378
128 25 26 33 42 30 63 l-3 29 -36 -35z"/>
<path d="M853 733 c-49 -49 -57 -51 -363 -129 -240 -61 -330 -98 -367 -153
-13 -19 -23 -45 -23 -58 0 -24 2 -23 47 16 51 46 60 49 421 150 116 33 232 69
256 80 50 21 79 65 74 109 l-3 27 -42 -42z"/>
<path d="M760 581 c-41 -16 -76 -33 -77 -38 -4 -11 52 -241 60 -249 11 -11
238 -40 234 -30 -69 188 -131 346 -136 345 -3 0 -40 -13 -81 -28z"/>
<path d="M300 453 c-8 -3 -39 -15 -68 -25 -80 -30 -134 -83 -156 -153 -6 -21
-6 -21 110 -4 63 9 119 20 123 25 8 9 41 133 41 154 0 11 -25 12 -50 3z"/>
<path d="M3775 310 c-3 -6 1 -7 9 -4 18 7 21 14 7 14 -6 0 -13 -4 -16 -10z"/>
<path d="M1411 239 c-1 -59 10 -79 44 -79 34 0 45 20 43 79 -1 45 -2 48 -5 16
-6 -68 -12 -85 -33 -85 -25 0 -33 15 -41 75 l-6 50 -2 -56z"/>
<path d="M1542 223 l1 -68 6 55 6 55 28 -47 c41 -70 47 -68 45 9 l-1 68 -6
-53 -6 -54 -30 51 c-16 28 -33 51 -37 51 -4 0 -7 -30 -6 -67z"/>
<path d="M1673 225 c0 -38 2 -53 4 -32 2 20 2 52 0 70 -2 17 -4 1 -4 -38z"/>
<path d="M1702 278 c3 -7 13 -37 22 -65 10 -29 21 -53 25 -53 8 0 51 107 51
124 0 21 -19 -10 -30 -49 -7 -25 -16 -45 -20 -45 -5 0 -14 23 -21 50 -7 28
-17 50 -22 50 -5 0 -7 -6 -5 -12z"/>
<path d="M1820 225 l0 -65 38 1 c30 2 32 3 10 6 -22 3 -28 10 -28 28 0 18 6
25 28 28 l27 4 -27 2 c-23 1 -28 6 -28 25 0 19 6 26 28 29 22 3 20 4 -10 6
l-38 1 0 -65z"/>
<path d="M1922 223 c0 -38 3 -53 5 -35 2 17 10 32 17 32 18 0 36 -21 36 -42 0
-10 5 -18 10 -18 12 0 12 2 0 35 -6 17 -7 33 -1 43 15 26 -5 52 -39 52 l-30 0
2 -67z m53 32 c0 -13 -8 -21 -22 -23 -19 -3 -23 1 -23 23 0 22 4 26 23 23 14
-2 22 -10 22 -23z"/>
<path d="M2033 283 c-24 -9 -14 -42 18 -58 38 -20 36 -50 -4 -50 -15 1 -27 -3
-27 -8 0 -4 15 -7 33 -5 26 2 33 8 35 30 3 21 -3 30 -28 43 -37 19 -35 38 6
46 26 6 27 7 4 7 -14 0 -31 -2 -37 -5z"/>
<path d="M2123 225 c0 -38 2 -53 4 -32 2 20 2 52 0 70 -2 17 -4 1 -4 -38z"/>
<path d="M2170 225 l0 -65 30 0 c38 0 70 31 70 68 0 37 -28 62 -68 62 l-32 0
0 -65z m77 29 c15 -24 15 -29 2 -53 -9 -16 -25 -27 -42 -29 -27 -3 -27 -2 -27
52 0 53 1 56 25 56 15 0 31 -10 42 -26z"/>
<path d="M2327 283 c-12 -21 -38 -115 -34 -119 3 -3 8 4 12 15 9 28 55 29 62
1 3 -11 10 -20 15 -20 6 0 8 6 6 13 -3 6 -13 36 -22 65 -16 48 -29 63 -39 45z
m28 -50 c5 -19 2 -23 -14 -23 -23 0 -24 3 -15 38 7 26 18 20 29 -15z"/>
<path d="M2410 225 l0 -65 35 0 c22 0 43 8 55 20 43 43 10 110 -55 110 l-35 0
0 -65z m71 45 c13 -7 19 -21 19 -45 0 -35 -20 -55 -54 -55 -13 0 -16 12 -16
55 0 59 9 67 51 45z"/>
<path d="M2591 223 c1 -37 4 -57 6 -43 3 18 14 30 34 37 25 10 30 16 27 40 -2
23 -8 29 -35 31 l-33 3 1 -68z m56 41 c4 -11 -1 -22 -12 -30 -28 -21 -35 -17
-35 16 0 23 4 30 20 30 11 0 23 -7 27 -16z"/>
<path d="M2690 225 l0 -65 38 1 c36 1 36 2 7 8 -21 4 -31 13 -33 29 -3 18 2
22 25 23 28 1 28 1 3 8 -37 10 -33 44 5 52 29 6 29 7 -7 8 l-38 1 0 -65z"/>
<path d="M2792 223 c0 -37 3 -53 5 -35 2 17 10 32 17 32 18 0 36 -21 36 -42 0
-10 4 -18 10 -18 5 0 7 7 3 16 -3 10 -7 38 -7 63 -1 44 -2 46 -33 49 l-33 3 2
-68z m53 32 c0 -13 -8 -21 -22 -23 -19 -3 -23 1 -23 23 0 22 4 26 23 23 14 -2
22 -10 22 -23z"/>
<path d="M2890 244 c0 -25 5 -54 10 -65 11 -20 45 -25 69 -10 17 11 29 121 13
121 -6 0 -12 -25 -14 -57 -3 -54 -5 -58 -28 -58 -23 0 -25 4 -28 58 -4 68 -22
77 -22 11z"/>
<path d="M3023 225 c-12 -36 -18 -65 -13 -65 4 0 10 9 13 20 3 14 14 20 32 20
18 0 29 -6 32 -20 3 -11 9 -20 13 -20 5 0 -1 29 -13 65 -12 36 -26 65 -32 65
-6 0 -20 -29 -32 -65z m47 3 c0 -10 -7 -18 -15 -18 -16 0 -19 17 -9 45 5 13 8
14 15 3 5 -7 9 -21 9 -30z"/>
<path d="M3132 223 c2 -64 2 -65 5 -15 2 28 7 52 11 52 4 0 20 -23 35 -50 16
-28 32 -50 38 -50 5 0 8 30 7 68 l-1 67 -6 -55 -6 -55 -34 53 c-18 28 -37 52
-42 52 -5 0 -8 -30 -7 -67z"/>
<path d="M3273 225 c-12 -36 -18 -65 -13 -65 4 0 10 9 13 20 3 13 14 20 30 20
17 0 28 -7 32 -20 3 -11 10 -20 15 -20 4 0 -1 29 -13 65 -12 36 -26 65 -32 65
-6 0 -20 -29 -32 -65z m46 -2 c1 -7 -6 -13 -14 -13 -16 0 -19 17 -8 46 6 16 7
16 14 -2 4 -10 8 -25 8 -31z"/>
<path d="M3420 244 c0 -25 5 -54 10 -65 11 -20 45 -25 69 -10 17 11 29 121 13
121 -6 0 -12 -25 -14 -57 -3 -54 -5 -58 -28 -58 -23 0 -25 4 -28 58 -4 68 -22
77 -22 11z"/>
<path d="M3551 223 c1 -78 6 -74 12 10 2 31 0 57 -5 57 -4 0 -8 -30 -7 -67z"/>
<path d="M3630 238 l0 -53 -26 43 c-14 24 -28 41 -31 38 -5 -5 44 -93 57 -101
5 -3 10 24 12 60 1 36 0 65 -4 65 -5 0 -8 -24 -8 -52z"/>
<path d="M3683 225 c0 -38 2 -53 4 -32 2 20 2 52 0 70 -2 17 -4 1 -4 -38z"/>
<path d="M3737 272 c-37 -40 -12 -112 38 -112 33 0 55 26 55 65 0 59 -57 87
-93 47z m67 -8 c30 -30 10 -94 -29 -94 -21 0 -45 29 -45 55 0 26 24 55 45 55
7 0 21 -7 29 -16z"/>
<path d="M3862 223 l1 -68 6 55 6 55 24 -38 c13 -21 25 -36 28 -33 7 6 -47 96
-58 96 -5 0 -8 -30 -7 -67z"/>
<path d="M3938 233 c-5 -63 -2 -77 13 -68 12 8 12 125 0 125 -5 0 -11 -26 -13
-57z"/>
</g>
</svg>
